<svg xmlns="http://www.w3.org/2000/svg" viewBox="0 0 96 96" role="img" aria-labelledby="logo-title logo-desc">
  <title id="logo-title">Wilderden</title>
  <desc id="logo-desc">An arched woodland den wrapped by a bright animal tail and leaf.</desc>
  <defs>
    <linearGradient id="den" x1="18" y1="8" x2="80" y2="88" gradientUnits="userSpaceOnUse">
      <stop stop-color="#27a896"/>
      <stop offset="1" stop-color="#176157"/>
    </linearGradient>
    <linearGradient id="tail" x1="23" y1="78" x2="76" y2="27" gradientUnits="userSpaceOnUse">
      <stop stop-color="#f0b841"/>
      <stop offset="1" stop-color="#ed765f"/>
    </linearGradient>
    <filter id="shadow" x="-20%" y="-20%" width="140%" height="150%">
      <feDropShadow dx="0" dy="5" stdDeviation="5" flood-color="#102c2b" flood-opacity=".24"/>
    </filter>
  </defs>
  <path d="M48 5 79 17c7 3 11 9 11 17v27c0 12-7 22-17 28L48 94 23 89C13 83 6 73 6 61V34c0-8 4-14 11-17L48 5Z" fill="url(#den)" filter="url(#shadow)"/>
  <path d="M48 12 75 22c5 2 8 7 8 13v25c0 9-5 17-14 22L48 87 27 82c-9-5-14-13-14-22V35c0-6 3-11 8-13l27-10Z" fill="none" stroke="#fff" stroke-opacity=".22" stroke-width="2"/>
  <path d="M29 66V51c0-13 8-23 19-23s19 10 19 23v15H29Z" fill="#173d3a"/>
  <path d="M37 66V51c0-8 5-15 11-15s11 7 11 15v15H37Z" fill="#fff9e9"/>
  <path d="M24 69c7 12 22 15 34 9 12-7 18-19 15-32-1-5-4-9-8-10-3 0-5 2-5 5 0 5 5 8 6 13 2 8-3 16-10 19-8 4-17 1-21-6-3-5-5-7-8-6-3 1-5 4-3 8Z" fill="url(#tail)"/>
  <path d="M66 25c1-8 6-13 15-14-1 8-6 13-15 14Z" fill="#d6ed74"/>
  <path d="M65 25c4-2 8-6 12-10" fill="none" stroke="#176157" stroke-linecap="round" stroke-width="2"/>
  <circle cx="48" cy="53" r="3" fill="#ed765f"/>
</svg>
